<?xml version="1.0" encoding="utf-8"?>
<!DOCTYPE svg PUBLIC "-//W3C//DTD SVG 20010904//EN" "http://www.w3.org/TR/2001/REC-SVG-20010904/DTD/svg10.dtd">
<svg version="1.0" xmlns="http://www.w3.org/2000/svg" width="250px" height="202px" viewBox="0 0 250 202" preserveAspectRatio="xMidYMid meet">
 <g fill="#000000">
  <path d="M203 184.4 l-4.5 -4.6 -8.5 0.3 c-4.7 0.1 -9.2 0.1 -10.1 0.1 -1.9 -0.2 -5 -6.8 -7.8 -17.1 -1.1 -4.1 -2.3 -7.6 -2.5 -7.9 -0.3 -0.2 -4.9 0.3 -10.3 1.3 -11.1 1.9 -16.9 4.4 -35.1 14.6 -16.8 9.5 -26 13.9 -29.4 13.9 -4.9 0 -12.7 -8.7 -15.9 -17.9 -1 -2.7 -0.8 -3.5 0.7 -5.2 1.4 -1.6 2.5 -1.9 5.9 -1.3 3.9 0.5 4.6 0.3 9.1 -3.8 6.9 -6.1 16.3 -13.2 20.1 -15.1 1.7 -0.9 3.5 -2.1 3.8 -2.7 0.4 -0.6 -0.9 -3.2 -2.8 -5.8 -3.6 -4.8 -5.7 -10.7 -7.8 -21.9 -0.6 -3.5 -1.5 -6.3 -1.9 -6.3 -0.4 0 -6.3 2.7 -13.1 5.9 -17.5 8.3 -27.2 11.2 -39.5 11.8 -17.3 0.9 -21.8 -2 -31.8 -21.1 -9.4 -17.6 -10.8 -22.6 -10.8 -37.1 -0.1 -6.6 0.4 -13.2 1 -14.7 3.6 -8.8 13.9 -15.4 39.9 -25.8 10.1 -4 13.4 -5.7 13.9 -7.4 0.3 -1.1 1.6 -3.2 2.8 -4.4 4.3 -4.9 6.2 -5.2 27.6 -5.2 23.4 0 24 0.2 33.1 9.7 7.8 8.1 11.2 12.6 22.7 29.9 5.5 8.3 10.7 15.7 11.5 16.6 0.9 0.9 4.4 1.8 8.7 2.2 13.4 1.2 26 7 26 12 0 1.3 -0.9 4.8 -1.9 7.9 -1.1 3.2 -1.8 5.7 -1.5 5.7 0.3 0 4.9 -3.6 10.2 -8.1 24.3 -20.3 34.2 -24.3 34.2 -14 0 5.4 -11.4 27.7 -25.9 50.6 -15.5 24.4 -17.1 27.4 -17.1 31.7 0 4 0.7 4.4 10.8 6.4 5.7 1.2 6.7 3.3 6.7 15.3 0 8.5 -0.4 11.2 -1.8 13.4 -0.9 1.5 -2.3 2.7 -3 2.7 -0.7 0 -3.3 -2.1 -5.7 -4.6z m8.2 -1.9 c1 -3.5 0.2 -14.8 -1.4 -18.7 -1 -2.8 -5.5 -4.8 -10.5 -4.8 -4.5 0 -7.3 -1.8 -7.3 -4.7 0 -5.4 2 -9.6 10.4 -22.2 18.2 -27.2 34.6 -57.3 34.6 -63.3 0 -5.8 -6.8 -2.7 -23.6 10.7 -7.9 6.4 -15.5 14 -31.2 31.5 -4.4 4.9 -6.5 5 -3.6 0.2 2.3 -4 1.5 -5.4 -4.9 -9.5 -7.9 -5.1 -8.9 -6.8 -7.1 -12.5 0.7 -2.6 1.1 -6.5 0.8 -8.7 -0.5 -3.8 -0.5 -3.9 1.1 -2 2.4 3 2.9 6.3 1.5 10.5 -2.2 6.8 1.4 9.9 4.5 3.9 2.1 -3.9 2.9 -3.3 1.3 0.9 -1 2.5 -1 3.4 0 4.4 0.9 0.9 1.5 0.9 2.4 0 1.9 -1.9 2.8 -1.4 2.8 1.8 0 3.6 2.3 4 4.4 0.8 2.6 -4.2 9.7 -21.9 9.4 -23.6 -0.7 -3.7 -15.7 -9.2 -25.2 -9.2 -2.4 0 -5.2 -0.3 -6.2 -0.7 -0.9 -0.3 -4.6 -5.2 -8.2 -10.7 -16.1 -24.9 -28.2 -39.9 -36 -44.8 -3.5 -2.2 -4.6 -2.3 -23.4 -2.3 -22.2 0 -23.2 0.3 -27.3 8 -1.8 3.5 -2.9 4.2 -12 7.5 -23.1 8.6 -36.6 16.3 -40.5 23.1 -5.8 10.4 -2.3 37.9 6 47.2 l2.7 3.1 12.7 -1.6 c7 -0.9 12.9 -1.8 13.2 -2 0.2 -0.3 1.3 -3.6 2.3 -7.3 1.8 -6.6 5.1 -11.9 5.1 -8.4 0 0.9 -0.9 4.2 -2 7.4 -1.1 3.2 -2 8.1 -2.1 10.9 0 3.7 -0.3 4.5 -0.9 3.1 -0.7 -2 -1.3 -2 -11.1 -1.3 -13.3 1 -14.9 1.7 -14.9 6.3 0 4.8 6.3 11.7 12.7 13.9 12.9 4.4 37.1 -1.5 59.8 -14.5 l7.5 -4.3 0 -8.8 c0 -4.8 0.4 -8.8 0.9 -8.8 1 0 1.5 4.1 2.7 18.5 0.7 9.9 2.9 21.7 4.5 24.7 0.7 1.3 3 4.4 5.1 6.9 2.1 2.5 3.8 4.8 3.8 5.1 0 0.3 -4.4 3.5 -9.7 7.1 -5.4 3.6 -13.1 9.5 -17.1 13.1 -7.4 6.7 -8.6 7.4 -9.7 5.6 -0.3 -0.5 -1.9 -1 -3.6 -1 -3.2 0 -3.7 1.7 -1.9 6.5 1.4 3.6 10.7 12.5 13.1 12.5 2.5 0 11.1 -4.4 31.3 -15.9 8.8 -5 17.6 -9.3 19.5 -9.7 2 -0.3 8.3 -1.4 14.1 -2.5 12.5 -2.4 11.7 -3 16.1 11.2 1.6 5.3 3.8 10.4 4.8 11.3 1.4 1.2 3.6 1.5 10.6 1.3 l8.8 -0.2 3.6 4.3 c4.1 4.8 6.1 5 7.3 0.7z"/>
  <path d="M122.3 120 c-3.3 -3.2 -3.3 -3.3 -3.3 -13.4 0.1 -11.4 1.1 -17.1 3.5 -19.5 1.6 -1.5 1.7 -1.2 0.9 4.9 -1.5 11.1 -1.1 21.2 0.9 24.3 1.7 2.6 2.1 2.7 10.2 2.7 12.5 0 31 -6.3 25.2 -8.6 -1.3 -0.5 -1.4 -0.9 -0.4 -2.5 0.9 -1.5 0.8 -2.2 -0.5 -3.5 -1.3 -1.4 -2.2 -1.5 -5 -0.5 -3 1 -3.1 0.9 -1.4 -0.4 1 -0.8 2.3 -1.6 2.9 -1.8 1.6 -0.5 -0.2 -2.7 -2.1 -2.7 -0.9 0 -4 1 -6.9 2.2 -2.9 1.2 -5.6 1.9 -5.9 1.5 -0.9 -0.8 -2.7 -17.8 -1.9 -18.5 1.2 -1.2 2.6 1.7 3.6 7.5 l1.1 6.1 7.1 -0.2 7.1 -0.1 2.8 4 c1.5 2.2 3.1 5.4 3.4 7.2 1.4 7.3 -10.2 13.2 -27.6 14 l-10.5 0.5 -3.2 -3.2z"/>
  <path d="M16.8 56.5 c1.5 -3 6.9 -7.8 7.5 -6.8 0.7 1.1 -2.2 4.5 -5.7 6.8 -2.9 1.9 -2.9 1.9 -1.8 0z"/>
  <path d="M78.5 54.6 c-3.5 -1.5 -8.2 -6.3 -7.2 -7.2 0.4 -0.4 2.4 0.5 4.4 1.9 2.1 1.5 5.3 3.1 7.1 3.8 1.7 0.6 3.2 1.5 3.2 2 0 1.3 -4 1 -7.5 -0.5z"/>
  <path d="M70 43.2 c0 -1.1 21.6 -8.5 23.2 -8 1.4 0.5 -19.1 8.8 -21.6 8.8 -0.9 0 -1.6 -0.4 -1.6 -0.8z"/>
  <path d="M67.8 37.3 c-2.1 -0.2 -3.8 -0.8 -3.8 -1.2 0 -1.6 24.1 -11.1 28.1 -11.1 2.5 0 0.3 2 -3.8 3.6 -8.8 3.1 -13.2 5.5 -13.8 7.5 -0.4 1 -1.2 1.8 -1.8 1.7 -0.7 -0.1 -2.9 -0.3 -4.9 -0.5z"/>
 </g>
</svg>